#!OML:ASF F:\VICON\USERDATA\INSTALL\Justin_Nancy\Justin_Nancy.ASF
:FULLY-SPECIFIED
:DEGREES
127
root 9.71599 17.4621 -11.1656 -1.79552 -7.17874 5.86566
lowerback 6.42862 -1.084 -4.84662
upperback 0.405325 -1.74327 1.61558
thorax -2.99201 -0.795222 4.55642
lowerneck -15.7111 -3.67396 -9.9579
upperneck 25.0048 -3.77337 4.64633
head 10.9674 -2.12347 2.83015
rclavicle 1.19271e-014 -3.18055e-015
rhumerus -32.6352 -15.9429 -75.9478
rradius 29.1544
rwrist 8.51471
rhand -13.6076 11.7168
rfingers 7.12502
rthumb 12.5074 -17.8889
lclavicle 1.19271e-014 -3.18055e-015
lhumerus -28.0283 10.6144 82.2516
lradius 27.194
lwrist -9.45248
lhand -14.3455 26.6581
lfingers 7.12502
lthumb 11.7959 56.3059
rfemur -28.3097 -4.2261 18.0312
rtibia 59.1941
rfoot -9.09084 -12.0071
rtoes 9.87985
lfemur -5.78456 1.49863 -29.5576
ltibia 25.9897
lfoot -14.4054 1.47569
ltoes -2.06759
128
root 9.70023 17.4353 -11.0501 -1.72981 -7.35705 6.34762
lowerback 6.49588 -1.07055 -5.27113
upperback 0.260105 -1.76776 1.44557
thorax -3.17085 -0.79357 4.6262
lowerneck -15.3698 -3.74389 -9.99414
upperneck 24.931 -3.92929 4.74928
head 10.889 -2.18929 2.85323
rclavicle -8.44835e-016 -1.82882e-014
rhumerus -33.1617 -16.065 -75.7851
rradius 29.3418
rwrist 8.4237
rhand -13.4697 12.5474
rfingers 7.12502
rthumb 12.6404 -17.0501
lclavicle -8.44835e-016 -1.82882e-014
lhumerus -27.7818 10.5744 82.0851
lradius 27.3225
lwrist -9.09853
lhand -13.5782 29.0274
lfingers 7.12502
lthumb 12.5358 58.6313
rfemur -28.9224 -4.22774 17.5695
rtibia 57.4025
rfoot -9.52526 -11.9716
rtoes 8.25905
lfemur -5.46216 1.71287 -30.096
ltibia 25.8896
lfoot -14.6072 1.62864
ltoes -1.93309
129
root 9.6804 17.4458 -10.9372 -1.54652 -7.5911 6.39852
lowerback 4.96656 -1.0903 -4.99151
upperback 1.32103 -1.68569 1.11734
thorax -1.24334 -0.837866 4.05502
lowerneck -15.9218 -3.9569 -9.63627
upperneck 23.9266 -4.32449 5.08312
head 10.6537 -2.27153 2.83928
rclavicle 4.37326e-015 9.54166e-015
rhumerus -31.7463 -16.7704 -76.6849
rradius 29.4169
rwrist 7.79538
rhand -13.6311 12.9028
rfingers 7.12502
rthumb 12.4848 -16.7043
lclavicle 4.37326e-015 9.54166e-015
lhumerus -25.4601 10.5184 81.9155
lradius 27.0767
lwrist -9.06763
lhand -14.0857 28.3155
lfingers 7.12502
lthumb 12.0465 57.9488
rfemur -29.3823 -4.05337 17.6383
rtibia 55.3766
rfoot -10.0058 -12.1942
rtoes 4.93515
lfemur -5.07506 2.41244 -30.1254
ltibia 25.6535
lfoot -14.8782 1.52651
ltoes -3.93996
130
root 9.65799 17.4447 -10.8285 -1.47963 -7.75072 6.40321
lowerback 4.51128 -1.17046 -5.01159
upperback 1.73618 -1.76292 1.08367
thorax -0.552618 -0.905003 4.0152
lowerneck -16.2833 -3.98469 -9.52089
upperneck 23.5826 -4.36262 5.14968
head 10.5982 -2.26022 2.83057
rclavicle 1.15295e-014 4.77083e-015
rhumerus -31.1134 -16.6219 -77.1589
rradius 29.6136
rwrist 7.27804
rhand -13.8291 12.18
rfingers 7.12502
rthumb 12.2938 -17.4386
lclavicle 1.15295e-014 4.77083e-015
lhumerus -24.4436 10.606 81.8584
lradius 27.1443
lwrist -9.02969
lhand -14.5145 26.6703
lfingers 7.12502
lthumb 11.633 56.3274
rfemur -29.6555 -3.91206 17.7479
rtibia 53.2636
rfoot -9.58042 -12.5823
rtoes 4.13754
lfemur -4.56469 2.71439 -30.1005
ltibia 25.408
lfoot -15.2064 1.5468
ltoes -5.22888
131
root 9.63577 17.4428 -10.719 -1.36042 -8.01784 6.4633
lowerback 4.5986 -1.19562 -5.26216
upperback 1.62137 -1.8129 1.20049
thorax -0.702179 -0.924405 4.28454
lowerneck -16.1793 -3.95553 -9.61231
upperneck 23.6361 -4.29343 5.0881
head 10.5935 -2.24677 2.83512
rclavicle 1.59028e-015 -2.22639e-014
rhumerus -31.2002 -16.7461 -76.9389
rradius 29.5461
rwrist 7.75616
rhand -14.3002 11.1246
rfingers 7.12502
rthumb 11.8396 -18.5207
lclavicle 1.59028e-015 -2.22639e-014
lhumerus -24.2918 11.0027 81.8256
lradius 27.2757
lwrist -9.02153
lhand -14.6108 26.5622
lfingers 7.12502
lthumb 11.5401 56.2245
rfemur -29.8882 -3.77964 17.785
rtibia 50.9374
rfoot -8.89603 -12.6212
rtoes 6.20629
lfemur -4.10126 2.73433 -30.1856
ltibia 25.073
lfoot -15.3048 1.95568
ltoes -5.02536
132
root 9.61221 17.4446 -10.6087 -1.23564 -8.34308 6.70245
lowerback 4.88333 -1.17487 -5.67935
upperback 1.3552 -1.82551 1.24065
thorax -1.11961 -0.912071 4.57592
lowerneck -15.8959 -3.92442 -9.58387
upperneck 23.5849 -4.26113 4.98993
head 10.5147 -2.24495 2.80139
rclavicle 2.04748e-014 -7.95139e-016
rhumerus -31.6154 -17.12 -76.5153
rradius 29.4182
rwrist 8.21767
rhand -14.9525 10.6789
rfingers 7.12502
rthumb 11.2106 -19.0016
lclavicle 2.04748e-014 -7.95139e-016
lhumerus -24.2057 11.3335 81.7312
lradius 27.1909
lwrist -8.99773
lhand -14.8973 26.4139
lfingers 7.12502
lthumb 11.2638 56.0915
rfemur -30.0867 -3.60645 17.6413
rtibia 48.4669
rfoot -8.10112 -12.6645
rtoes 7.16154
lfemur -3.64361 2.93545 -30.4657
ltibia 24.7322
lfoot -15.4276 2.3218
ltoes -5.03231
133
root 9.58704 17.4545 -10.4959 -1.07022 -8.56193 6.79712
lowerback 4.95461 -1.20246 -5.89684
upperback 1.2207 -1.87996 1.26178
thorax -1.28393 -0.930354 4.72839
lowerneck -15.9711 -3.86578 -9.52901
upperneck 23.7466 -4.21254 5.06584
head 10.5838 -2.21055 2.82818
rclavicle -4.59193e-014 1.59028e-014
rhumerus -31.8876 -17.4919 -76.2395
rradius 29.2755
rwrist 8.30423
rhand -14.9254 11.5283
rfingers 7.12502
rthumb 11.2367 -18.1508
lclavicle -4.59193e-014 1.59028e-014
lhumerus -24.1 11.5017 81.6182
lradius 27.3865
lwrist -9.03888
lhand -14.9648 25.2185
lfingers 7.12502
lthumb 11.1987 54.8996
rfemur -30.231 -3.55935 17.6596
rtibia 45.8374
rfoot -7.71651 -12.6919
rtoes 6.9028
lfemur -3.18821 3.06628 -30.5799
ltibia 24.3506
lfoot -15.5494 2.60715
ltoes -5.69654
134
root 9.56229 17.4632 -10.3823 -0.882293 -8.78758 6.79157
lowerback 5.3045 -1.20913 -6.02436
upperback 0.902131 -1.92312 1.33137
thorax -1.79755 -0.925786 4.89298
lowerneck -16.0487 -3.81834 -9.50175
upperneck 24.0859 -4.16095 5.07408
head 10.7184 -2.18791 2.83796
rclavicle 2.127e-014 -2.78299e-014
rhumerus -32.4061 -17.4559 -76.0029
rradius 29.2781
rwrist 8.01936
rhand -14.6723 12.1087
rfingers 7.12502
rthumb 11.4808 -17.5569
lclavicle 2.127e-014 -2.78299e-014
lhumerus -24.3618 11.5903 81.5327
lradius 27.7595
lwrist -8.92808
lhand -14.896 23.8328
lfingers 7.12502
lthumb 11.265 53.5103
rfemur -30.2902 -3.623 17.8149
rtibia 43.1058
rfoot -7.36712 -12.5293
rtoes 6.6567
lfemur -2.80128 2.92824 -30.5893
ltibia 23.9434
lfoot -15.3624 2.99188
ltoes -4.64321
135
root 9.53888 17.4658 -10.2683 -0.685279 -9.02479 6.80484
lowerback 6.45581 -1.20554 -6.29175
upperback 0.00557279 -2.02326 1.55674
thorax -3.34577 -0.891712 5.34717
lowerneck -15.6061 -3.76636 -9.6993
upperneck 24.6892 -4.03815 4.82875
head 10.8468 -2.19664 2.81126
rclavicle -1.04362e-015 -7.95139e-016
rhumerus -33.6799 -16.8102 -75.4134
rradius 29.368
rwrist 7.7148
rhand -14.6295 11.9692
rfingers 7.12502
rthumb 11.5221 -17.6941
lclavicle -1.04362e-015 -7.95139e-016
lhumerus -25.4179 11.7081 81.5232
lradius 27.9776
lwrist -8.62561
lhand -15.3444 22.6371
lfingers 7.12502
lthumb 10.8326 52.3378
rfemur -30.2959 -3.66202 17.9546
rtibia 40.3324
rfoot -6.88808 -12.413
rtoes 8.21601
lfemur -2.46625 3.06904 -30.5704
ltibia 23.4976
lfoot -15.2278 3.10219
ltoes -3.93383
136
root 9.51268 17.4679 -10.1575 -0.486886 -9.21471 6.92463
lowerback 6.03107 -1.32859 -6.40998
upperback 0.186567 -2.16443 1.54111
thorax -2.89522 -0.982645 5.38871
lowerneck -15.6882 -3.80392 -9.96099
upperneck 24.483 -4.07065 5.0742
head 10.8009 -2.20237 2.93665
rclavicle -9.83984e-015 -2.38542e-015
rhumerus -33.2508 -16.9106 -75.6219
rradius 29.2572
rwrist 7.80789
rhand -14.8093 12.0207
rfingers 7.12502
rthumb 11.3486 -17.6523
lclavicle -9.83984e-015 -2.38542e-015
lhumerus -24.769 11.67 81.5291
lradius 28.022
lwrist -8.2463
lhand -15.4339 25.7668
lfingers 7.12502
lthumb 10.7462 55.472
rfemur -30.3077 -3.60706 17.9648
rtibia 37.5764
rfoot -6.15572 -12.2986
rtoes 9.25512
lfemur -2.11671 3.16627 -30.6598
ltibia 22.9808
lfoot -15.0741 3.11814
ltoes -4.02161
